# xmcd CD database file
#
# Track frame offsets:
#	150
#	16285
#	37875
#	53930
#	71665
#	89215
#	110085
#	127655
#	148810
#	166240
#	188025
#	203430
#	220840
#	237970
#	254760
#	274920
#	305345
#
# Disc length: 4087 seconds
#
# Revision: 0
# Processed by: cddbd v1.5.1PL0 Copyright (c) Steve Scherf et al.
# Submitted via: CDex 1.51
#
DISCID=f90ff511
DTITLE=Backstreet Boys - GREATEST HITS - CHAPTER 1
DYEAR=1900
DGENRE=Rock
TTITLE0=Backstreet Boys/I Want It That Way
TTITLE1=Backstreet Boys/Everybody (Backstreet's Back)
TTITLE2=Backstreet Boys/As Long As You Love Me
TTITLE3=Backstreet Boys/Show Me The Meaning Of Being Lonely
TTITLE4=Backstreet Boys/Quit Playing Games (With My Heart)
TTITLE5=Backstreet Boys/All I Have To Give
TTITLE6=Backstreet Boys/Larger Than Life
TTITLE7=Backstreet Boys/Anywhere For You
TTITLE8=Backstreet Boys/Get Down (You're The One For Me)
TTITLE9=Backstreet Boys/I'll Never Break Your Heart
TTITLE10=Backstreet Boys/The Call
TTITLE11=Backstreet Boys/Shape Of My Heart
TTITLE12=Backstreet Boys/The One
TTITLE13=Backstreet Boys/More Than That
TTITLE14=Backstreet Boys/Drowning
TTITLE15=Backstreet Boys/The Perfect Fan
TTITLE16=データ
EXTD=
EXTT0=
EXTT1=
EXTT2=
EXTT3=
EXTT4=
EXTT5=
EXTT6=
EXTT7=
EXTT8=
EXTT9=
EXTT10=
EXTT11=
EXTT12=
EXTT13=
EXTT14=
EXTT15=
EXTT16=
PLAYORDER=
